<svg width="288" height="179" fill="none" xmlns="http://www.w3.org/2000/svg"><path d="M96 140.905h-3v10h3v-10Zm16.917 5.048-4.834-5.048H105v10h3.083v-5.379l4.834 5.379H116v-10h-3.083v5.048ZM137 150.905h6v-2.465h-3v-1.435h3v-2.465h-3v-1.251h3v-2.384h-6v10Zm24-7.616h1.014v7.616H165v-10h-4v2.384Zm29-.001h1.019v7.617H194v-10h-4v2.383Zm-12-2.375c-2.207 0-4 1.756-4 3.916 0 1.719 1.124 3.174 2.697 3.703l-1.435 2.373h3.407l2.655-3.901a3.843 3.843 0 0 0 .676-2.182c0-2.168-1.793-3.917-4-3.917v.008Zm0 5.011c-.703 0-1.276-.529-1.276-1.176 0-.647.573-1.176 1.276-1.176.703 0 1.283.529 1.283 1.176 0 .647-.573 1.176-1.283 1.176Zm30.765-.646c.503-.462.802-1.079.802-1.761 0-1.445-1.374-2.612-3.073-2.612-.821 0-1.559.264-2.113.712 0 0-1.222.778-1.222 2.311h2.196c0-.257.229-.484.229-.484.178-.213.509-.352.814-.352.56 0 .897.308.897.697 0 .278-.19.513-.464.631 0 0-.458.227-1.158.256v1.864c.763.015 1.266.183 1.266.183.452.14.77.507.77.939 0 .558-.528.998-1.177.998-.516 0-.961-.286-1.114-.682 0 0-.159-.316-.159-.646H203c0 1.226.585 2.047.585 2.047.605.917 1.706 1.526 2.953 1.526 1.916 0 3.462-1.43 3.462-3.191 0-.976-.477-1.856-1.235-2.436Zm-87.765.624c0 2.759 2.62 5.003 5.858 5.003a6.57 6.57 0 0 0 2.142-.346v-2.965c-.52.397-1.22.648-1.997.648-1.608 0-2.911-1.067-2.911-2.377 0-1.31 1.303-2.377 2.911-2.377.77 0 1.477.243 1.997.648v-2.885a6.79 6.79 0 0 0-2.142-.346c-3.238 0-5.858 2.237-5.858 4.997Zm-38.43-1.087s-.775-.355-1.433-.576c-.122-.037-.747-.2-.747-.555 0-.295.706-.532 1.44-.406 0 0 .895.052 2.362 1.182l.788-2.343c-1.569-1.086-2.94-1.175-2.94-1.175a4.196 4.196 0 0 0-.53-.037c-1.853 0-3.422 1.22-3.422 2.735 0 .547.109 1.057.408 1.522.618.961 1.806 1.42 1.806 1.42.977.436 1.65.687 1.65.687s.692.273.604.702c-.061.303-.605.399-1.195.274 0 0-.903-.03-2.397-1.19L78 149.649c1.61 1.131 3.015 1.219 3.015 1.219.183.022.36.037.543.037 2.26 0 3.442-1.271 3.442-2.838 0-.739-.088-1.367-.652-2.077 0 0-.448-.591-1.785-1.175h.006ZM237 128.905h1.383c.768 0 1.481.184 1.481.857 0 .436-.334.749-.921.817l1.057 1.326h-.858l-.922-1.272h-.515v1.272H237v-3Zm1.265 1.272c.398 0 .868-.027.868-.415 0-.353-.443-.401-.805-.401h-.614v.816h.551Z" fill="#D9D9D6"/><path d="M238.5 132.905a2.5 2.5 0 1 1 0-5 2.5 2.5 0 0 1 0 5Zm0-4.58c-1.15 0-2.08.931-2.08 2.08a2.08 2.08 0 1 0 4.16 0c0-1.149-.93-2.08-2.08-2.08ZM99 103.906H53.219s-9.217-.226-9.217 9.143c0 0-.403 9.657 9.244 9.657h8.882s1.372-.068 1.372.932c0 0 .34 1.445-1.309 1.445H44.79c-.418 0-.362.37-.362.37v7.075s.02.363.334.363h18.746s8.596.76 8.98-8.842c0 0 .514-9.664-8.98-9.664H54.43s-1.177.157-1.177-1.37c0 0-.125-1.301 1.177-1.301h21.09s.39 0 .446.452v20.191s-.014.438.396.459h7.908c.34-.089.334-.445.334-.445v-20.123s-.049-.534.383-.534H92.7s2.02.013 3.154-1.658l3.139-6.143m88.007 28.5v-6.229c0-.472-.394-.417-.394-.417h-11.202s-1.148.075-1.148-1.567v-19.855c0-.493-.387-.438-.387-.438h-7.475c-.415 0-.394.479-.394.479v23.687s.166 4.832 5.525 4.832h15.026s.442-.02.442-.486m40.732-15.981 7.922-12.163s.24-.37.662-.37h8.514s.282.048.134.308l-12.176 18.3c-1.204 1.567-1.112 3.058-1.112 3.058v6.903s.042.404-.409.431h-7.542c-.437 0-.423-.431-.423-.431v-7.121c0-1.56-.788-2.607-.788-2.607l-7.648-11.439c-.092-.171-.296-.171-.296-.171h-15.95c-.388 0-.381.397-.381.397v3.017s-.014.411.367.411h13.605s.415-.014.415.499v5.884s.029.492-.429.492h-13.479c-.401 0-.408.445-.408.445v2.928s.049.445.394.445h14.796s.429 0 .429.506l.014 6.246s.014.499-.464.499h-20.747c-3.633-.082-3.725-3.974-3.725-3.974v-24.506s-.014-.513.394-.513h29.81s.232 0 .366.24l7.796 12.28s.134.232.366.013M131 132.467s-.014.431.388.438h7.517s.403 0 .403-.438v-15.889s-.007-.15.098-.178c0 0 .092-.061.219.069l8.364 12.413c3.155 4.311 7.016 3.989 7.016 3.989H162v-28.432c0-.554-.459-.534-.459-.534h-7.531c-.409 0-.388.534-.388.534v16.471c-.021.239-.148.267-.148.267-.142.034-.24-.124-.24-.124l-9.042-13.617c-1.934-2.956-4.927-3.517-6.169-3.517h-7.016v28.548H131Zm-15.488-25.206c-1.87-2.713-4.401-3.418-7.002-3.35-2.607-.075-4.964.514-7.008 3.35C96.816 116.028 88 132.905 88 132.905h9.344a284.97 284.97 0 0 0 2.302-4.452h9.282c1.508 0 2.906-.479 3.879-2.363a363.36 363.36 0 0 0 1.683-3.274c2.294 4.527 4.526 8.897 5.166 10.089 4.289-.027 3.671-.027 9.344 0 0 0-8.983-17.562-13.502-25.644m-12.418 14.432c2.754-5.425 5.423-10.727 5.423-10.727s2.663 5.295 5.417 10.727h-10.84Zm53.7-29.205-3.756-1.153-3.024 4.57h14.533L167 84.031l-12.066-3.126 1.846 11.583Zm-41.451-19.583-2.669 20.266-3.29-1.577-2.37 4.311h13.561L126 81.621l-10.671-8.716Zm70.671-36-35.857 4.406c-1.464.16-2.657 1.165-3.143 2.594 0 0 24.437-1.533 30.487-1.838 5.661-.285 7.701-1.443 8.513-5.162Zm-41 12 28.326-.349c3.671.12 5.26 0 6.674-3.65l-34.142 1.38-.858 2.62ZM115.37 26.89v7.015h13.253V26.89a.5.5 0 0 0-.121-.985.498.498 0 0 0-.499.503c0 .187.107.353.264.439l-1.168 2.077c-.399.74-1.467.712-1.823-.043l-.876-2.049a.507.507 0 0 0 .249-.424.498.498 0 1 0-.997 0c0 .194.107.353.264.439l-.919 2.041a1.12 1.12 0 0 1-.976.618h-.042a1.1 1.1 0 0 1-.976-.618l-.919-2.041a.495.495 0 0 0 .264-.439.498.498 0 1 0-.748.424l-.876 2.049c-.356.755-1.424.784-1.823.043l-1.168-2.077a.495.495 0 0 0 .264-.439.498.498 0 1 0-.997 0 .5.5 0 0 0 .377.482h-.007Z" fill="#D9D9D6"/><path d="M145.261 35.717a6.645 6.645 0 0 0-4.886 3.778L135.326 49.8l-2.38-5.607 2.486-2.41v-5.11l-2.107-.538-4.184 1.026-3.553-1.627-3.904.447-3.84-.447-3.553 1.627-4.185-1.026-2.106.538v5.11l2.485 2.41-1.502 8.448 4.227 15.39 16.387 13.818-.428 10.648-3.405-1.082-2.809 4.49h14.309l6.516-20.145 26.427 6.564 5.372 10.229-3.181-1.04-2.464 4.391h12.322l2.633-3.344-2.444-12.513.014-16.66a3.082 3.082 0 0 0 3.09-3.072v-.677h-3.083l-6.263-5.014a15.94 15.94 0 0 0-10.019-3.484l-22.39-.118-4.662 4.817 5.42-14.013a4.313 4.313 0 0 1 3.405-2.605c4.592-.628 12.372-2.486 34.2-5.076 5.905-.698 7.794-4.685 7.843-7.24l-44.725 8.811h-.014Zm-20.558 13.05-.098.07a.907.907 0 0 1-1.208-.168l-1.453-2.045c0-.133.112-.245.246-.245.625 0 1.13-.503 1.13-1.124v-1.131h-3.391v1.131c0 .621.505 1.124 1.13 1.124.134 0 .246.112.246.245l-1.453 2.045a.907.907 0 0 1-1.208.168l-.098-.07a1.369 1.369 0 0 1-.583-1.257l.372-3.756c0-.175.028-.356.077-.524.085-.28.288-.503.527-.663.857-.573 2.682-2.067 2.682-2.067h.007s1.833 1.494 2.689 2.067c.239.16.442.384.527.656.049.168.077.342.077.524l.372 3.756c.049.496-.175.97-.583 1.257l-.007.007Z" fill="#D9D9D6"/></svg>